<svg width="29" height="58" viewBox="0 0 29 58" fill="none" xmlns="http://www.w3.org/2000/svg">
<path d="M19.1146 16.1058L12.6815 23.3437C12.4547 23.5988 12.1765 23.803 11.8652 23.9429C11.5538 24.0827 11.2163 24.155 10.875 24.155C10.5337 24.155 10.1962 24.0827 9.88485 23.9429C9.57348 23.803 9.29528 23.5988 9.06854 23.3437L2.63538 16.1058C2.24198 15.6633 2.02466 15.0919 2.02466 14.4999C2.02466 13.9079 2.24198 13.3364 2.63538 12.894L9.06854 5.65609C9.29528 5.40095 9.57348 5.19673 9.88485 5.05688C10.1962 4.91703 10.5337 4.84473 10.875 4.84473C11.2163 4.84473 11.5538 4.91703 11.8652 5.05688C12.1765 5.19673 12.4547 5.40095 12.6815 5.65609L19.1146 12.894C19.508 13.3364 19.7253 13.9079 19.7253 14.4999C19.7253 15.0919 19.508 15.6633 19.1146 16.1058Z" fill="#FB6161" stroke="#CCCCCC" stroke-linecap="round" stroke-linejoin="round"/>
<path d="M14.5 7.70278L16.3185 5.65707C16.5453 5.40193 16.8235 5.19771 17.1348 5.05786C17.4462 4.91801 17.7837 4.8457 18.125 4.8457C18.4663 4.8457 18.8038 4.91801 19.1152 5.05786C19.4265 5.19771 19.7047 5.40193 19.9315 5.65707L26.3646 12.895C26.7577 13.3373 26.9748 13.9085 26.9748 14.5003C26.9748 15.092 26.7577 15.6632 26.3646 16.1055L19.9315 23.3434C19.7047 23.5986 19.4265 23.8028 19.1152 23.9427C18.8038 24.0825 18.4663 24.1548 18.125 24.1548C17.7837 24.1548 17.4462 24.0825 17.1348 23.9427C16.8235 23.8028 16.5453 23.5986 16.3185 23.3434L14.5 21.2953" fill="#FB6161"/>
<path d="M14.5 7.70278L16.3185 5.65707C16.5453 5.40193 16.8235 5.19771 17.1348 5.05786C17.4462 4.91801 17.7837 4.8457 18.125 4.8457C18.4663 4.8457 18.8038 4.91801 19.1152 5.05786C19.4265 5.19771 19.7047 5.40193 19.9315 5.65707L26.3646 12.895C26.7577 13.3373 26.9748 13.9085 26.9748 14.5003C26.9748 15.092 26.7577 15.6632 26.3646 16.1055L19.9315 23.3434C19.7047 23.5986 19.4265 23.8028 19.1152 23.9427C18.8038 24.0825 18.4663 24.1548 18.125 24.1548C17.7837 24.1548 17.4462 24.0825 17.1348 23.9427C16.8235 23.8028 16.5453 23.5986 16.3185 23.3434L14.5 21.2953" stroke="#CCCCCC" stroke-linecap="round" stroke-linejoin="round"/>
<path d="M14 57C14 57.2761 14.2239 57.5 14.5 57.5C14.7761 57.5 15 57.2761 15 57H14.5H14ZM14.5 21.75H14L14 57H14.5H15L15 21.75H14.5Z" fill="#CCCCCC"/>
</svg>
