<svg width="24" height="91" viewBox="0 0 24 91" fill="none" xmlns="http://www.w3.org/2000/svg">
<path d="M15.819 13.3292L10.495 19.3192C10.3073 19.5304 10.0771 19.6994 9.8194 19.8151C9.56172 19.9309 9.28244 19.9907 8.99996 19.9907C8.71748 19.9907 8.4382 19.9309 8.18052 19.8151C7.92284 19.6994 7.6926 19.5304 7.50496 19.3192L2.18096 13.3292C1.85539 12.9631 1.67554 12.4902 1.67554 12.0002C1.67554 11.5103 1.85539 11.0374 2.18096 10.6712L7.50496 4.68124C7.6926 4.47009 7.92284 4.30108 8.18052 4.18534C8.4382 4.0696 8.71748 4.00977 8.99996 4.00977C9.28244 4.00977 9.56172 4.0696 9.8194 4.18534C10.0771 4.30108 10.3073 4.47009 10.495 4.68124L15.819 10.6712C16.1445 11.0374 16.3244 11.5103 16.3244 12.0002C16.3244 12.4902 16.1445 12.9631 15.819 13.3292Z" fill="#FB6161" stroke="#CCCCCC" stroke-linecap="round" stroke-linejoin="round"/>
<path d="M12 6.37522L13.505 4.68222C13.6926 4.47106 13.9229 4.30206 14.1806 4.18632C14.4382 4.07058 14.7175 4.01074 15 4.01074C15.2825 4.01074 15.5618 4.07058 15.8194 4.18632C16.0771 4.30206 16.3074 4.47106 16.495 4.68222L21.819 10.6722C22.1443 11.0383 22.324 11.511 22.324 12.0007C22.324 12.4904 22.1443 12.9631 21.819 13.3292L16.495 19.3192C16.3074 19.5304 16.0771 19.6994 15.8194 19.8151C15.5618 19.9309 15.2825 19.9907 15 19.9907C14.7175 19.9907 14.4382 19.9309 14.1806 19.8151C13.9229 19.6994 13.6926 19.5304 13.505 19.3192L12 17.6242" fill="#FB6161"/>
<path d="M12 6.37522L13.505 4.68222C13.6926 4.47106 13.9229 4.30206 14.1806 4.18632C14.4382 4.07058 14.7175 4.01074 15 4.01074C15.2825 4.01074 15.5618 4.07058 15.8194 4.18632C16.0771 4.30206 16.3074 4.47106 16.495 4.68222L21.819 10.6722C22.1443 11.0383 22.324 11.511 22.324 12.0007C22.324 12.4904 22.1443 12.9631 21.819 13.3292L16.495 19.3192C16.3074 19.5304 16.0771 19.6994 15.8194 19.8151C15.5618 19.9309 15.2825 19.9907 15 19.9907C14.7175 19.9907 14.4382 19.9309 14.1806 19.8151C13.9229 19.6994 13.6926 19.5304 13.505 19.3192L12 17.6242" stroke="#CCCCCC" stroke-linecap="round" stroke-linejoin="round"/>
<path d="M11 90C11 90.5523 11.4477 91 12 91C12.5523 91 13 90.5523 13 90H12H11ZM12 18H11L11 90H12H13L13 18H12Z" fill="#CCCCCC"/>
</svg>
