<svg width="22" height="18" viewBox="0 0 22 18" fill="none" xmlns="http://www.w3.org/2000/svg">
<path d="M14.819 10.329L9.49496 16.319C9.30732 16.5302 9.07708 16.6992 8.8194 16.8149C8.56172 16.9306 8.28244 16.9905 7.99996 16.9905C7.71748 16.9905 7.4382 16.9306 7.18052 16.8149C6.92284 16.6992 6.6926 16.5302 6.50496 16.319L1.18096 10.329C0.855386 9.96286 0.675537 9.48995 0.675537 9C0.675537 8.51004 0.855386 8.03713 1.18096 7.671L6.50496 1.681C6.6926 1.46984 6.92284 1.30083 7.18052 1.1851C7.4382 1.06936 7.71748 1.00952 7.99996 1.00952C8.28244 1.00952 8.56172 1.06936 8.8194 1.1851C9.07708 1.30083 9.30732 1.46984 9.49496 1.681L14.819 7.671C15.1445 8.03713 15.3244 8.51004 15.3244 9C15.3244 9.48995 15.1445 9.96286 14.819 10.329Z" fill="#FB6161" stroke="#414141" stroke-linecap="round" stroke-linejoin="round"/>
<path d="M11 3.37497L12.505 1.68197C12.6926 1.47082 12.9229 1.30181 13.1806 1.18607C13.4382 1.07034 13.7175 1.0105 14 1.0105C14.2825 1.0105 14.5618 1.07034 14.8194 1.18607C15.0771 1.30181 15.3074 1.47082 15.495 1.68197L20.819 7.67197C21.1443 8.03805 21.324 8.51075 21.324 9.00047C21.324 9.4902 21.1443 9.9629 20.819 10.329L15.495 16.319C15.3074 16.5301 15.0771 16.6991 14.8194 16.8149C14.5618 16.9306 14.2825 16.9905 14 16.9905C13.7175 16.9905 13.4382 16.9306 13.1806 16.8149C12.9229 16.6991 12.6926 16.5301 12.505 16.319L11 14.624" fill="#FB6161"/>
<path d="M11 3.37497L12.505 1.68197C12.6926 1.47082 12.9229 1.30181 13.1806 1.18607C13.4382 1.07034 13.7175 1.0105 14 1.0105C14.2825 1.0105 14.5618 1.07034 14.8194 1.18607C15.0771 1.30181 15.3074 1.47082 15.495 1.68197L20.819 7.67197C21.1443 8.03805 21.324 8.51075 21.324 9.00047C21.324 9.4902 21.1443 9.9629 20.819 10.329L15.495 16.319C15.3074 16.5301 15.0771 16.6991 14.8194 16.8149C14.5618 16.9306 14.2825 16.9905 14 16.9905C13.7175 16.9905 13.4382 16.9306 13.1806 16.8149C12.9229 16.6991 12.6926 16.5301 12.505 16.319L11 14.624" stroke="#414141" stroke-linecap="round" stroke-linejoin="round"/>
</svg>
