<svg width="212" height="94" viewBox="0 0 212 94" fill="none" xmlns="http://www.w3.org/2000/svg">
<path d="M0.849976 20C0.849976 8.95443 9.80445 0.000198931 20.85 0L178.047 0C189.093 0.000176121 198.047 8.95441 198.047 20V23.6578C198.047 29.6733 201.612 35.117 207.126 37.5215V37.5215C213.529 40.3138 213.529 49.3951 207.126 52.1875V52.1875C201.612 54.5926 198.047 60.0367 198.047 66.0526V73.5C198.047 84.5456 189.093 93.4998 178.047 93.5L20.85 93.5C9.80444 93.4998 0.849976 84.5456 0.849976 73.5L0.849976 20Z" fill="url(#paint0_linear_420_553)"/>
<defs>
<linearGradient id="paint0_linear_420_553" x1="-22.0664" y1="46.75" x2="223.603" y2="46.75" gradientUnits="userSpaceOnUse">
<stop stop-color="#3FAF79"/>
<stop offset="1" stop-color="#F3EDE0"/>
</linearGradient>
</defs>
</svg>
